<?xml version="1.0" encoding="utf-8"?>
<!-- Generator: Adobe Illustrator 23.0.0, SVG Export Plug-In . SVG Version: 6.00 Build 0)  -->
<svg version="1.1" id="Layer_1" xmlns="http://www.w3.org/2000/svg" xmlns:xlink="http://www.w3.org/1999/xlink" x="0px" y="0px"
	 viewBox="0 0 1351 420" style="enable-background:new 0 0 1351 420;" xml:space="preserve">
<style type="text/css">
	.st0{fill:#43566B;}
	.st1{fill:#FFFFFF;stroke:#43566B;stroke-width:2;stroke-linecap:round;stroke-linejoin:round;stroke-miterlimit:10;}
	.st2{fill:#FFFFFF;}
	.st3{opacity:0.5;}
	.st4{fill:#00B8DE;}
	.st5{fill:#00425F;}
	.st6{fill:#BFDEFF;}
	.st7{fill:#EE312A;}
	.st8{fill:url(#SVGID_1_);}
	.st9{fill:url(#SVGID_2_);}
</style>
<g>
	<g>
		<rect x="219.71" y="408.72" class="st0" width="908.83" height="3.06"/>
	</g>
	<circle class="st1" cx="219.71" cy="407.25" r="7.64"/>
	<g>
		<circle class="st2" cx="1128.54" cy="407.25" r="7.64"/>
		<path class="st0" d="M1128.54,416.42c-5.06,0-9.17-4.11-9.17-9.17c0-5.06,4.11-9.17,9.17-9.17s9.17,4.11,9.17,9.17
			C1137.71,412.31,1133.6,416.42,1128.54,416.42z M1128.54,401.14c-3.37,0-6.11,2.74-6.11,6.11c0,3.37,2.74,6.11,6.11,6.11
			c3.37,0,6.11-2.74,6.11-6.11C1134.66,403.88,1131.91,401.14,1128.54,401.14z"/>
	</g>
	<g class="st3">
		<path class="st4" d="M761.83,318.27c-34.67,0-62.88-28.86-62.88-64.34s28.21-64.34,62.88-64.34c34.67,0,62.88,28.86,62.88,64.34
			S796.51,318.27,761.83,318.27z M761.83,192.64c-32.98,0-59.82,27.49-59.82,61.29c0,33.79,26.84,61.29,59.82,61.29
			c32.99,0,59.82-27.49,59.82-61.29C821.66,220.13,794.82,192.64,761.83,192.64z"/>
	</g>
	<g>
		<g>
			<ellipse class="st2" cx="761.84" cy="253.93" rx="51.42" ry="52.88"/>
			<path class="st0" d="M761.84,308.34c-29.19,0-52.95-24.41-52.95-54.41s23.75-54.41,52.95-54.41c29.19,0,52.94,24.41,52.94,54.41
				S791.03,308.34,761.84,308.34z M761.84,202.57c-27.51,0-49.89,23.04-49.89,51.35c0,28.32,22.38,51.35,49.89,51.35
				s49.89-23.04,49.89-51.35C811.72,225.61,789.34,202.57,761.84,202.57z"/>
		</g>
		<g>
			<rect x="760.31" y="201.05" class="st0" width="3.06" height="105.76"/>
		</g>
		<g>
			<path class="st0" d="M757.43,307.45c-18.16-33.31-18.53-73.29-1-106.95l2.71,1.41c-17.06,32.75-16.7,71.66,0.97,104.07
				L757.43,307.45z"/>
		</g>
		<g>
			<path class="st0" d="M766.35,307.44l-2.68-1.46c17.66-32.41,18.03-71.31,0.97-104.06l2.71-1.41
				C784.87,234.16,784.5,274.14,766.35,307.44z"/>
		</g>
		<g>
			<rect x="710.42" y="252.4" class="st0" width="102.83" height="3.06"/>
		</g>
		<g>
			<path class="st0" d="M761.84,245.38c-16.54,0-33.09-1.8-49.51-5.41l0.66-2.98c32.42,7.12,65.3,7.12,97.71,0l0.66,2.98
				C794.92,243.57,778.38,245.38,761.84,245.38z"/>
		</g>
		<g>
			<path class="st0" d="M810.55,271.36c-32.33-7.07-65.1-7.07-97.42,0l-0.65-2.98c32.76-7.17,65.97-7.17,98.73,0L810.55,271.36z"/>
		</g>
		<g>
			<path class="st0" d="M761.84,222.88c-11.3,0-22.59-3.04-32.66-9.13l1.58-2.61c19.17,11.59,42.99,11.59,62.16,0l1.58,2.61
				C784.43,219.83,773.13,222.88,761.84,222.88z"/>
		</g>
		<g>
			<path class="st0" d="M728.73,294.92l-1.68-2.55c21.13-13.96,48.44-13.95,69.57,0l-1.68,2.55
				C774.83,281.64,748.84,281.64,728.73,294.92z"/>
		</g>
		<g>
			<path class="st0" d="M750.73,307.03c-17.76-11.57-28.37-31.42-28.37-53.11c0-21.68,10.6-41.54,28.37-53.11l1.67,2.56
				c-16.89,11-26.98,29.9-26.98,50.55c0,20.65,10.09,39.54,26.98,50.55L750.73,307.03z"/>
		</g>
		<g>
			<path class="st0" d="M772.94,307.03l-1.67-2.56c16.95-11.04,27.03-30,26.98-50.71c-0.06-20.71-10.24-39.61-27.25-50.56l1.65-2.57
				c17.89,11.51,28.6,31.37,28.66,53.12C801.37,275.51,790.76,295.43,772.94,307.03z"/>
		</g>
	</g>
	<g>
		<path class="st5" d="M763.2,188.01h-3.06v-2.18h3.06V188.01z M763.2,182.77h-3.06v-3.06h3.06V182.77z M763.2,176.66h-3.06v-3.06
			h3.06V176.66z M763.2,170.54h-3.06v-3.06h3.06V170.54z M763.2,164.43h-3.06v-3.06h3.06V164.43z M763.2,158.32h-3.06v-3.06h3.06
			V158.32z M763.2,152.21h-3.06v-3.06h3.06V152.21z M763.2,146.09h-3.06v-3.06h3.06V146.09z M763.2,139.98h-3.06v-3.06h3.06V139.98z
			 M763.2,133.87h-3.06v-3.06h3.06V133.87z M763.2,127.76h-3.06v-3.06h3.06V127.76z M763.2,121.64h-3.06v-3.06h3.06V121.64z"/>
	</g>
	<path class="st4" d="M660.5,163.05c9.04,0,16.37,6.39,16.37,14.28c0-7.88,7.33-14.28,16.37-14.28s16.37,6.39,16.37,14.28
		c0-7.88,7.33-14.28,16.37-14.28c9.04,0,16.37,6.39,16.37,14.28c0-7.88,7.33-14.28,16.37-14.28s16.37,6.39,16.37,14.28
		c0-7.88,7.33-14.28,16.37-14.28c9.04,0,16.37,6.39,16.37,14.28c0-7.88,7.33-14.28,16.37-14.28c9.04,0,16.37,6.39,16.37,14.28
		c0-7.88,7.33-14.28,16.37-14.28c6.58,0,12.21,3.4,14.81,8.28c-8.86-47.48-55.53-83.71-111.83-83.71
		c-54.68,0-100.26,34.17-110.97,79.63C651.87,164.65,655.97,163.05,660.5,163.05z"/>
	<g>
		<path class="st2" d="M675.16,133.23c-0.17,0-0.35-0.06-0.49-0.18c-0.32-0.27-0.37-0.75-0.09-1.08
			c13.78-16.41,33.54-28.61,55.64-34.36c0.41-0.11,0.83,0.14,0.93,0.55c0.11,0.41-0.14,0.83-0.55,0.93
			c-21.8,5.66-41.28,17.69-54.86,33.86C675.59,133.14,675.37,133.23,675.16,133.23z"/>
	</g>
	<g>
		<path class="st0" d="M872.16,139.81c-0.53,0-1.05-0.28-1.33-0.78c-20.93-37.24-63.45-60.38-110.94-60.38
			c-46.07,0-88.1,22.39-109.68,58.44c-0.43,0.73-1.37,0.96-2.1,0.53c-0.72-0.43-0.96-1.37-0.53-2.1
			c22.13-36.97,65.16-59.93,112.3-59.93c48.6,0,92.13,23.73,113.61,61.94c0.41,0.74,0.15,1.67-0.58,2.08
			C872.67,139.75,872.41,139.81,872.16,139.81z"/>
	</g>
	<path class="st4" d="M362.9,292.47l0,114.48c0,1.82-1.47,3.29-3.29,3.29h-68.36c-1.82,0-3.29-1.47-3.29-3.29V292.47
		c0-1.82,1.47-3.29,3.29-3.29h68.36C361.42,289.18,362.9,290.65,362.9,292.47z"/>
	<path class="st0" d="M357.86,411.77h-64.88c-3.62,0-6.56-2.94-6.56-6.56l0-111c0-3.62,2.94-6.56,6.56-6.56h64.88
		c3.62,0,6.56,2.94,6.56,6.56v111C364.42,408.83,361.48,411.77,357.86,411.77z M292.99,290.71c-1.93,0-3.5,1.57-3.5,3.51l0,111
		c0,1.93,1.57,3.51,3.51,3.51h64.88c1.93,0,3.5-1.57,3.5-3.51v-111c0-1.93-1.57-3.51-3.5-3.51H292.99z"/>
	<g>
		
			<rect x="250.34" y="343.95" transform="matrix(6.123234e-17 -1 1 6.123234e-17 -38.8386 660.5828)" class="st2" width="121.06" height="11.53"/>
		<path class="st0" d="M318.17,411.77h-14.59V287.65h14.59V411.77z M306.64,408.72h8.47V290.71h-8.47V408.72z"/>
	</g>
	<g>
		<path class="st2" d="M327.89,352.23c0-13.68,0-27.35,0-41.03"/>
		<rect x="326.36" y="311.2" class="st0" width="3.06" height="41.03"/>
	</g>
	<g>
		<path class="st2" d="M327.89,401.76c0-14.67,0-29.34,0-44.01"/>
		<rect x="326.36" y="357.75" class="st0" width="3.06" height="44.01"/>
	</g>
	<g>
		<line class="st2" x1="337.77" y1="401.76" x2="337.77" y2="370.71"/>
		<rect x="336.25" y="370.71" class="st0" width="3.06" height="31.05"/>
	</g>
	<g>
		<line class="st2" x1="337.77" y1="367.07" x2="337.77" y2="350.1"/>
		<rect x="336.25" y="350.1" class="st0" width="3.06" height="16.97"/>
	</g>
	<g>
		<line class="st2" x1="344.48" y1="401.76" x2="344.48" y2="370.71"/>
		<rect x="342.95" y="370.71" class="st0" width="3.06" height="31.05"/>
	</g>
	<g>
		<line class="st2" x1="344.48" y1="367.07" x2="344.48" y2="350.1"/>
		<rect x="342.95" y="350.1" class="st0" width="3.06" height="16.97"/>
	</g>
	<g>
		<line class="st2" x1="337.77" y1="346.67" x2="337.77" y2="329.69"/>
		<rect x="336.25" y="329.69" class="st0" width="3.06" height="16.97"/>
	</g>
	<g>
		<g>
			<g>
				<rect x="712.16" y="285" class="st6" width="44.48" height="125.24"/>
				<path class="st0" d="M758.17,411.77h-47.54v-128.3h47.54V411.77z M713.69,408.72h41.43V286.53h-41.43V408.72z"/>
			</g>
			<g>
				<rect x="719.57" y="292.42" class="st2" width="29.66" height="110.41"/>
				<g>
					<path class="st0" d="M750.76,404.36h-32.71V290.89h32.71V404.36z M721.1,401.3h26.6V293.94h-26.6V401.3z"/>
				</g>
			</g>
			<g>
				<g>
					<ellipse class="st2" cx="734.4" cy="347.62" rx="17.92" ry="14.52"/>
					<path class="st0" d="M734.4,363.67c-10.72,0-19.45-7.2-19.45-16.04c0-8.85,8.72-16.04,19.45-16.04s19.45,7.2,19.45,16.04
						C753.85,356.47,745.13,363.67,734.4,363.67z M734.4,334.63c-9.04,0-16.39,5.83-16.39,12.99c0,7.16,7.35,12.99,16.39,12.99
						c9.04,0,16.39-5.83,16.39-12.99C750.79,340.46,743.44,334.63,734.4,334.63z"/>
				</g>
				<g>
					<path class="st6" d="M728.93,343.58c-1.02,1.11-1.59,2.04-1.59,3.47c0,1.61,0.84,2.6,2.39,2.6c3.59,0,2.87-8.14,8.92-8.14
						c2.84,0,4.94,1.68,5.48,4.64h3.08v2.39h-2.99c-0.18,1.83-1.02,3.83-2.27,5.18l-2.33-1.56c1.11-1.41,1.85-2.81,1.85-4.43
						c0-1.94-0.96-2.9-2.57-2.9c-3.95,0-3.38,8.14-9,8.14c-2.78,0-4.76-1.74-5.24-4.43h-3.05v-2.39h2.99
						c0.24-1.91,1.17-3.23,2.33-4.34L728.93,343.58z"/>
				</g>
			</g>
			<g>
				<path class="st2" d="M737.82,313.32c0,2.46-1.99,4.46-4.46,4.46c-2.46,0-4.46-1.99-4.46-4.46c0-2.46,1.99-4.46,4.46-4.46
					C735.83,308.87,737.82,310.86,737.82,313.32z"/>
				<path class="st0" d="M733.37,319.31c-3.3,0-5.98-2.68-5.98-5.98c0-3.3,2.68-5.98,5.98-5.98c3.3,0,5.98,2.68,5.98,5.98
					C739.35,316.62,736.67,319.31,733.37,319.31z M733.37,310.4c-1.61,0-2.93,1.31-2.93,2.93c0,1.61,1.31,2.93,2.93,2.93
					c1.61,0,2.93-1.31,2.93-2.93C736.29,311.71,734.98,310.4,733.37,310.4z"/>
			</g>
			<g>
				<path class="st2" d="M737.82,380.23c0,2.46-1.99,4.46-4.46,4.46c-2.46,0-4.46-1.99-4.46-4.46c0-2.46,1.99-4.46,4.46-4.46
					C735.83,375.78,737.82,377.77,737.82,380.23z"/>
				<path class="st0" d="M733.37,386.22c-3.3,0-5.98-2.68-5.98-5.98c0-3.3,2.68-5.98,5.98-5.98c3.3,0,5.98,2.68,5.98,5.98
					C739.35,383.53,736.67,386.22,733.37,386.22z M733.37,377.31c-1.61,0-2.93,1.31-2.93,2.93c0,1.61,1.31,2.93,2.93,2.93
					c1.61,0,2.93-1.31,2.93-2.93C736.29,378.62,734.98,377.31,733.37,377.31z"/>
			</g>
		</g>
		<g>
			<g>
				<rect x="667.42" y="285" class="st6" width="44.48" height="125.24"/>
				<path class="st0" d="M713.44,411.77H665.9v-128.3h47.54V411.77z M668.95,408.72h41.43V286.53h-41.43V408.72z"/>
			</g>
			<g>
				<rect x="674.84" y="292.42" class="st2" width="29.66" height="110.41"/>
				<g>
					<path class="st0" d="M706.02,404.36h-32.71V290.89h32.71V404.36z M676.37,401.3h26.6V293.94h-26.6V401.3z"/>
				</g>
			</g>
			<g>
				<g>
					<ellipse class="st2" cx="689.67" cy="347.62" rx="17.92" ry="14.52"/>
					<path class="st0" d="M689.67,363.67c-10.72,0-19.45-7.2-19.45-16.04c0-8.85,8.72-16.04,19.45-16.04s19.45,7.2,19.45,16.04
						C709.11,356.47,700.39,363.67,689.67,363.67z M689.67,334.63c-9.04,0-16.39,5.83-16.39,12.99c0,7.16,7.35,12.99,16.39,12.99
						s16.39-5.83,16.39-12.99C706.05,340.46,698.7,334.63,689.67,334.63z"/>
				</g>
				<g>
					<path class="st6" d="M684.19,343.58c-1.02,1.11-1.59,2.04-1.59,3.47c0,1.61,0.84,2.6,2.39,2.6c3.59,0,2.87-8.14,8.92-8.14
						c2.84,0,4.94,1.68,5.48,4.64h3.08v2.39h-2.99c-0.18,1.83-1.02,3.83-2.27,5.18l-2.33-1.56c1.11-1.41,1.85-2.81,1.85-4.43
						c0-1.94-0.96-2.9-2.57-2.9c-3.95,0-3.38,8.14-9,8.14c-2.78,0-4.76-1.74-5.24-4.43h-3.05v-2.39h2.99
						c0.24-1.91,1.17-3.23,2.33-4.34L684.19,343.58z"/>
				</g>
			</g>
			<g>
				<path class="st2" d="M693.08,313.32c0,2.46-1.99,4.46-4.46,4.46s-4.46-1.99-4.46-4.46c0-2.46,1.99-4.46,4.46-4.46
					S693.08,310.86,693.08,313.32z"/>
				<path class="st0" d="M688.63,319.31c-3.3,0-5.98-2.68-5.98-5.98c0-3.3,2.68-5.98,5.98-5.98c3.3,0,5.98,2.68,5.98,5.98
					C694.61,316.62,691.93,319.31,688.63,319.31z M688.63,310.4c-1.61,0-2.93,1.31-2.93,2.93c0,1.61,1.31,2.93,2.93,2.93
					c1.61,0,2.93-1.31,2.93-2.93C691.56,311.71,690.24,310.4,688.63,310.4z"/>
			</g>
			<g>
				<path class="st2" d="M693.08,380.23c0,2.46-1.99,4.46-4.46,4.46s-4.46-1.99-4.46-4.46c0-2.46,1.99-4.46,4.46-4.46
					S693.08,377.77,693.08,380.23z"/>
				<path class="st0" d="M688.63,386.22c-3.3,0-5.98-2.68-5.98-5.98c0-3.3,2.68-5.98,5.98-5.98c3.3,0,5.98,2.68,5.98,5.98
					C694.61,383.53,691.93,386.22,688.63,386.22z M688.63,377.31c-1.61,0-2.93,1.31-2.93,2.93c0,1.61,1.31,2.93,2.93,2.93
					c1.61,0,2.93-1.31,2.93-2.93C691.56,378.62,690.24,377.31,688.63,377.31z"/>
			</g>
		</g>
	</g>
	<g>
		<g>
			<path class="st6" d="M730.49,254.05v120.35c0,1.91-1.55,3.46-3.46,3.46h-71.87c-1.91,0-3.46-1.55-3.46-3.46l0-120.35
				c0-1.91,1.55-3.46,3.46-3.46h71.87C728.94,250.59,730.49,252.14,730.49,254.05z"/>
			<path class="st0" d="M725.2,379.4h-68.21c-3.76,0-6.82-3.06-6.82-6.82v-116.7c0-3.76,3.06-6.82,6.82-6.82h68.21
				c3.76,0,6.82,3.06,6.82,6.82v116.7C732.02,376.34,728.96,379.4,725.2,379.4z M656.99,252.12c-2.08,0-3.76,1.69-3.76,3.76v116.7
				c0,2.08,1.69,3.76,3.76,3.76h68.21c2.08,0,3.76-1.69,3.76-3.76v-116.7c0-2.08-1.69-3.76-3.76-3.76H656.99z"/>
		</g>
		<g>
			
				<rect x="612.15" y="308.17" transform="matrix(6.123234e-17 -1 1 6.123234e-17 361.5646 990.0214)" class="st2" width="127.28" height="12.12"/>
			<path class="st0" d="M683.38,379.4H668.2V249.06h15.18V379.4z M671.26,376.34h9.07V252.12h-9.07V376.34z"/>
		</g>
		<g>
			<path class="st2" d="M693.68,316.88c0-14.38,0-28.76,0-43.14"/>
			<rect x="692.15" y="273.74" class="st0" width="3.06" height="43.14"/>
		</g>
		<g>
			<path class="st2" d="M693.68,368.95c0-15.42,0-30.85,0-46.27"/>
			<rect x="692.15" y="322.68" class="st0" width="3.06" height="46.27"/>
		</g>
		<g>
			<line class="st2" x1="704.08" y1="368.95" x2="704.08" y2="336.31"/>
			<rect x="702.55" y="336.31" class="st0" width="3.06" height="32.65"/>
		</g>
		<g>
			<line class="st2" x1="704.08" y1="332.48" x2="704.08" y2="314.64"/>
			<rect x="702.55" y="314.64" class="st0" width="3.06" height="17.84"/>
		</g>
		<g>
			<line class="st2" x1="711.13" y1="368.95" x2="711.13" y2="336.31"/>
			<rect x="709.6" y="336.31" class="st0" width="3.06" height="32.65"/>
		</g>
		<g>
			<line class="st2" x1="711.13" y1="332.48" x2="711.13" y2="314.64"/>
			<rect x="709.6" y="314.64" class="st0" width="3.06" height="17.84"/>
		</g>
		<g>
			<line class="st2" x1="704.08" y1="311.03" x2="704.08" y2="293.18"/>
			<rect x="702.55" y="293.18" class="st0" width="3.06" height="17.84"/>
		</g>
	</g>
	<g>
		<path class="st2" d="M665.06,410.24H563.87c-2.78,0-5.03-2.25-5.03-5.03V222.8c0-2.78,2.25-5.03,5.03-5.03h101.19
			c2.78,0,5.03,2.25,5.03,5.03v182.42C670.09,407.99,667.84,410.24,665.06,410.24z"/>
		<path class="st0" d="M662.41,411.77h-95.88c-5.08,0-9.22-4.13-9.22-9.22v-177.1c0-5.08,4.13-9.22,9.22-9.22h95.88
			c5.08,0,9.22,4.14,9.22,9.22v177.1C671.62,407.64,667.49,411.77,662.41,411.77z M566.53,219.29c-3.4,0-6.16,2.76-6.16,6.16v177.1
			c0,3.4,2.76,6.16,6.16,6.16h95.88c3.4,0,6.16-2.76,6.16-6.16v-177.1c0-3.4-2.76-6.16-6.16-6.16H566.53z"/>
	</g>
	<path class="st4" d="M578.9,247.75h76.36v35.89c0,2.89-2.34,5.23-5.23,5.23h-76.36v-35.89
		C573.67,250.09,576.01,247.75,578.9,247.75z"/>
	<path class="st0" d="M647.27,290.39h-75.13v-34.65c0-5.25,4.27-9.51,9.51-9.51h75.13v34.65
		C656.79,286.12,652.52,290.39,647.27,290.39z M575.2,287.33h72.07c3.56,0,6.46-2.9,6.46-6.46v-31.6h-72.07
		c-3.56,0-6.46,2.9-6.46,6.46V287.33z"/>
	<g>
		<line class="st5" x1="573.67" y1="232.18" x2="655.26" y2="232.18"/>
		<rect x="573.67" y="230.65" class="st0" width="81.58" height="3.06"/>
	</g>
	<g>
		<g>
			<rect x="573.67" y="304.91" class="st2" width="21.66" height="14"/>
			<path class="st0" d="M596.87,320.44h-24.72v-17.06h24.72V320.44z M575.2,317.39h18.61v-10.94H575.2V317.39z"/>
		</g>
		<g>
			<rect x="603.64" y="304.91" class="st2" width="21.66" height="14"/>
			<path class="st0" d="M626.83,320.44h-24.72v-17.06h24.72V320.44z M605.16,317.39h18.61v-10.94h-18.61V317.39z"/>
		</g>
		<g>
			<rect x="633.6" y="304.91" class="st2" width="21.66" height="14"/>
			<path class="st0" d="M656.79,320.44h-24.72v-17.06h24.72V320.44z M635.12,317.39h18.61v-10.94h-18.61V317.39z"/>
		</g>
	</g>
	<g>
		<g>
			<rect x="573.67" y="327.03" class="st2" width="21.66" height="14"/>
			<path class="st0" d="M596.87,342.56h-24.72V325.5h24.72V342.56z M575.2,339.5h18.61v-10.94H575.2V339.5z"/>
		</g>
		<g>
			<rect x="603.64" y="327.03" class="st2" width="21.66" height="14"/>
			<path class="st0" d="M626.83,342.56h-24.72V325.5h24.72V342.56z M605.16,339.5h18.61v-10.94h-18.61V339.5z"/>
		</g>
		<g>
			<rect x="633.6" y="327.03" class="st2" width="21.66" height="14"/>
			<path class="st0" d="M656.79,342.56h-24.72V325.5h24.72V342.56z M635.12,339.5h18.61v-10.94h-18.61V339.5z"/>
		</g>
	</g>
	<g>
		<g>
			<rect x="573.67" y="349.15" class="st2" width="21.66" height="14"/>
			<path class="st0" d="M596.87,364.68h-24.72v-17.06h24.72V364.68z M575.2,361.62h18.61v-10.95H575.2V361.62z"/>
		</g>
		<g>
			<rect x="603.64" y="349.15" class="st2" width="21.66" height="14"/>
			<path class="st0" d="M626.83,364.68h-24.72v-17.06h24.72V364.68z M605.16,361.62h18.61v-10.95h-18.61V361.62z"/>
		</g>
		<g>
			<rect x="633.6" y="349.15" class="st2" width="21.66" height="14"/>
			<path class="st0" d="M656.79,364.68h-24.72v-17.06h24.72V364.68z M635.12,361.62h18.61v-10.95h-18.61V361.62z"/>
		</g>
	</g>
	<g>
		<g>
			<rect x="573.67" y="371.26" class="st2" width="21.66" height="14"/>
			<path class="st0" d="M596.87,386.79h-24.72v-17.06h24.72V386.79z M575.2,383.74h18.61v-10.94H575.2V383.74z"/>
		</g>
		<g>
			<rect x="603.64" y="371.26" class="st2" width="21.66" height="14"/>
			<path class="st0" d="M626.83,386.79h-24.72v-17.06h24.72V386.79z M605.16,383.74h18.61v-10.94h-18.61V383.74z"/>
		</g>
		<g>
			<rect x="633.6" y="371.26" class="st2" width="21.66" height="14"/>
			<path class="st0" d="M656.79,386.79h-24.72v-17.06h24.72V386.79z M635.12,383.74h18.61v-10.94h-18.61V383.74z"/>
		</g>
	</g>
	<g>
		<path class="st2" d="M647.28,232.18v-56.76c0-8.85-7.18-16.03-16.03-16.03h-33.52c-8.85,0-16.02,7.17-16.02,16.03v56.76H647.28z"
			/>
		<path class="st0" d="M648.81,233.71h-68.62v-58.29c0-9.68,7.87-17.56,17.55-17.56h33.52c9.68,0,17.56,7.88,17.56,17.56V233.71z
			 M583.24,230.65h62.51v-55.23c0-7.99-6.51-14.5-14.5-14.5h-33.52c-7.99,0-14.5,6.51-14.5,14.5V230.65z"/>
	</g>
	<g>
		<g>
			<rect x="597.73" y="189.99" class="st0" width="34.97" height="2.92"/>
		</g>
		<g>
			<rect x="597.73" y="198.73" class="st0" width="34.97" height="2.91"/>
		</g>
		<g>
			<rect x="597.73" y="207.47" class="st0" width="34.97" height="2.92"/>
		</g>
		<g>
			<rect x="597.73" y="216.22" class="st0" width="34.97" height="2.91"/>
		</g>
	</g>
	<rect x="597.73" y="175.42" class="st5" width="34.97" height="7.28"/>
	<g>
		<g>
			<path class="st2" d="M873.17,399.48c0,5.94-4.82,10.76-10.77,10.76h-96.92c-5.95,0-10.77-4.82-10.77-10.76v-177.7
				c0-5.95,4.82-10.77,10.77-10.77h96.92c5.95,0,10.77,4.82,10.77,10.77V399.48z"/>
			<path class="st0" d="M862.4,411.77h-96.92c-6.78,0-12.3-5.51-12.3-12.29v-177.7c0-6.78,5.52-12.3,12.3-12.3h96.92
				c6.78,0,12.3,5.52,12.3,12.3v177.7C874.7,406.26,869.18,411.77,862.4,411.77z M765.48,212.54c-5.1,0-9.24,4.15-9.24,9.24v177.7
				c0,5.09,4.15,9.24,9.24,9.24h96.92c5.1,0,9.25-4.14,9.25-9.24v-177.7c0-5.1-4.15-9.24-9.25-9.24H765.48z"/>
		</g>
		<g>
			<rect x="765.48" y="234.73" class="st6" width="96.92" height="148.08"/>
			<path class="st0" d="M863.92,384.34h-99.97V233.2h99.97V384.34z M767.01,381.28h93.86V236.26h-93.86V381.28z"/>
		</g>
		<g>
			<path class="st0" d="M853.79,227.03h-16.81v-3.06h16.81V227.03z M833.92,227.03h-6.11v-3.06h6.11V227.03z M818.64,227.03h-16.81
				v-3.06h16.81V227.03z M798.77,227.03h-6.11v-3.06h6.11V227.03z M783.49,227.03h-16.81v-3.06h16.81V227.03z"/>
		</g>
	</g>
	<g>
		<path class="st2" d="M747.56,256.63v29.45c0,4.88,3.96,8.83,8.83,8.83h4.42c4.88,0,8.83-3.95,8.83-8.83v-29.45H747.56z"/>
		<path class="st0" d="M760.81,296.43h-4.42c-5.71,0-10.36-4.65-10.36-10.36v-29.45c0-0.84,0.68-1.53,1.53-1.53h22.08
			c0.84,0,1.53,0.68,1.53,1.53v29.45C771.17,291.79,766.52,296.43,760.81,296.43z M749.09,258.16v27.92c0,4.03,3.28,7.3,7.31,7.3
			h4.42c4.03,0,7.3-3.28,7.3-7.3v-27.92H749.09z"/>
	</g>
	<path class="st7" d="M769.64,256.63v29.45c0,4.88,3.96,8.83,8.83,8.83h4.42c4.88,0,8.83-3.95,8.83-8.83v-29.45H769.64z"/>
	<path class="st0" d="M782.89,296.43h-4.42c-5.71,0-10.36-4.65-10.36-10.36v-29.45c0-0.84,0.68-1.53,1.53-1.53h22.09
		c0.84,0,1.53,0.68,1.53,1.53v29.45C793.26,291.79,788.61,296.43,782.89,296.43z M771.17,258.16v27.92c0,4.03,3.28,7.3,7.3,7.3h4.42
		c4.03,0,7.31-3.28,7.31-7.3v-27.92H771.17z"/>
	<g>
		<path class="st2" d="M791.73,256.63v29.45c0,4.88,3.95,8.83,8.83,8.83h4.41c4.88,0,8.84-3.95,8.84-8.83v-29.45H791.73z"/>
		<path class="st0" d="M804.97,296.43h-4.41c-5.71,0-10.36-4.65-10.36-10.36v-29.45c0-0.84,0.68-1.53,1.53-1.53h22.08
			c0.84,0,1.53,0.68,1.53,1.53v29.45C815.34,291.79,810.69,296.43,804.97,296.43z M793.26,258.16v27.92c0,4.03,3.28,7.3,7.3,7.3
			h4.41c4.03,0,7.31-3.28,7.31-7.3v-27.92H793.26z"/>
	</g>
	<path class="st7" d="M813.81,256.63v29.45c0,4.88,3.95,8.83,8.83,8.83h4.42c4.88,0,8.83-3.95,8.83-8.83v-29.45H813.81z"/>
	<path class="st0" d="M827.06,296.43h-4.42c-5.71,0-10.36-4.65-10.36-10.36v-29.45c0-0.84,0.68-1.53,1.53-1.53h22.08
		c0.84,0,1.53,0.68,1.53,1.53v29.45C837.42,291.79,832.77,296.43,827.06,296.43z M815.34,258.16v27.92c0,4.03,3.28,7.3,7.3,7.3h4.42
		c4.03,0,7.3-3.28,7.3-7.3v-27.92H815.34z"/>
	<g>
		<path class="st2" d="M835.89,256.63v29.45c0,4.88,3.95,8.83,8.83,8.83h4.42c4.88,0,8.83-3.95,8.83-8.83v-29.45H835.89z"/>
		<path class="st0" d="M849.14,296.43h-4.42c-5.71,0-10.36-4.65-10.36-10.36v-29.45c0-0.84,0.68-1.53,1.53-1.53h22.09
			c0.84,0,1.53,0.68,1.53,1.53v29.45C859.5,291.79,854.86,296.43,849.14,296.43z M837.42,258.16v27.92c0,4.03,3.28,7.3,7.3,7.3h4.42
			c4.03,0,7.3-3.28,7.3-7.3v-27.92H837.42z"/>
	</g>
	<path class="st7" d="M857.98,286.07c0,4.88,3.95,8.83,8.83,8.83h4.42c4.88,0,8.83-3.95,8.83-8.83v-29.45h-22.08V286.07z"/>
	<path class="st0" d="M871.22,296.43h-4.42c-5.71,0-10.36-4.65-10.36-10.36v-29.45c0-0.84,0.68-1.53,1.53-1.53h22.08
		c0.84,0,1.53,0.68,1.53,1.53v29.45C881.58,291.79,876.94,296.43,871.22,296.43z M859.5,258.16v27.92c0,4.03,3.28,7.3,7.3,7.3h4.42
		c4.03,0,7.3-3.28,7.3-7.3v-27.92H859.5z"/>
	<polygon class="st7" points="791.73,256.63 769.64,256.63 781.16,210.99 797.72,210.99 	"/>
	<path class="st0" d="M791.73,258.16h-22.09c-0.47,0-0.92-0.22-1.21-0.59c-0.29-0.37-0.39-0.86-0.28-1.31l11.52-45.64
		c0.17-0.68,0.78-1.15,1.48-1.15h16.56c0.44,0,0.86,0.19,1.15,0.52c0.29,0.33,0.42,0.77,0.37,1.21l-5.99,45.64
		C793.14,257.59,792.49,258.16,791.73,258.16z M771.6,255.1h18.78l5.59-42.58h-13.63L771.6,255.1z"/>
	<polygon class="st7" points="835.89,256.63 813.81,256.63 814.28,210.99 830.84,210.99 	"/>
	<path class="st0" d="M835.89,258.16h-22.08c-0.41,0-0.8-0.16-1.09-0.45c-0.29-0.29-0.45-0.68-0.44-1.09l0.47-45.64
		c0.01-0.84,0.69-1.51,1.53-1.51h16.56c0.78,0,1.43,0.59,1.52,1.36l5.05,45.64c0.05,0.43-0.09,0.86-0.38,1.19
		C836.74,257.97,836.33,258.16,835.89,258.16z M815.36,255.1h18.83l-4.71-42.58h-13.68L815.36,255.1z"/>
	<g>
		<g>
			<polygon class="st2" points="769.64,256.63 747.56,256.63 764.6,210.99 781.16,210.99 			"/>
			<path class="st0" d="M769.64,258.16h-22.08c-0.5,0-0.97-0.24-1.26-0.66c-0.29-0.41-0.35-0.94-0.18-1.41l17.03-45.64
				c0.22-0.6,0.79-0.99,1.43-0.99h16.56c0.47,0,0.92,0.22,1.21,0.59c0.29,0.37,0.39,0.85,0.28,1.31L771.12,257
				C770.95,257.68,770.34,258.16,769.64,258.16z M749.76,255.1h18.69l10.74-42.58h-13.54L749.76,255.1z"/>
		</g>
		<g>
			<polygon class="st2" points="813.81,256.63 791.73,256.63 797.72,210.99 814.28,210.99 			"/>
			<path class="st0" d="M813.81,258.16h-22.08c-0.44,0-0.86-0.19-1.15-0.52c-0.29-0.33-0.42-0.77-0.37-1.21l5.99-45.64
				c0.1-0.76,0.75-1.33,1.51-1.33h16.56c0.41,0,0.8,0.16,1.09,0.45c0.29,0.29,0.45,0.68,0.44,1.09l-0.47,45.64
				C815.33,257.48,814.65,258.16,813.81,258.16z M793.47,255.1h18.83l0.44-42.58h-13.68L793.47,255.1z"/>
		</g>
		<g>
			<polygon class="st2" points="857.98,256.63 835.89,256.63 830.84,210.99 847.4,210.99 			"/>
			<path class="st0" d="M857.98,258.16h-22.09c-0.78,0-1.43-0.59-1.52-1.36l-5.05-45.64c-0.05-0.43,0.09-0.86,0.38-1.19
				c0.29-0.32,0.7-0.51,1.14-0.51h16.56c0.71,0,1.33,0.49,1.49,1.18l10.57,45.64c0.1,0.45,0,0.93-0.29,1.3
				C858.88,257.94,858.44,258.16,857.98,258.16z M837.26,255.1h18.79l-9.87-42.58h-13.64L837.26,255.1z"/>
		</g>
	</g>
	<polygon class="st7" points="880.06,256.63 857.98,256.63 847.4,210.99 863.97,210.99 	"/>
	<path class="st0" d="M880.06,258.16h-22.08c-0.71,0-1.33-0.49-1.49-1.18l-10.57-45.64c-0.1-0.45,0-0.93,0.29-1.3
		c0.29-0.37,0.73-0.58,1.2-0.58h16.57c0.65,0,1.23,0.41,1.44,1.02l16.09,45.64c0.16,0.47,0.09,0.98-0.19,1.39
		C881.02,257.92,880.55,258.16,880.06,258.16z M859.19,255.1h18.71l-15.01-42.58h-13.56L859.19,255.1z"/>
	<g>
		<rect x="778.98" y="314.16" class="st2" width="73.31" height="43.99"/>
		<path class="st0" d="M853.81,359.68h-76.36v-47.05h76.36V359.68z M780.51,356.62h70.25v-40.94h-70.25V356.62z"/>
	</g>
	<g>
		<polygon class="st2" points="807.85,345.13 823.41,336.15 807.85,327.17 		"/>
		<path class="st0" d="M806.33,347.78v-23.25l20.14,11.63L806.33,347.78z M809.38,329.82v12.66l10.97-6.33L809.38,329.82z"/>
	</g>
	<g>
		<g>
			
				<rect x="380.39" y="234.15" transform="matrix(-1 -1.224647e-16 1.224647e-16 -1 816.2662 624.5016)" class="st2" width="55.48" height="156.21"/>
			<path class="st0" d="M437.4,391.88h-58.54V232.62h58.54V391.88z M381.92,388.83h52.42V235.68h-52.42V388.83z"/>
		</g>
		<g>
			<rect x="389.64" y="243.4" class="st2" width="36.99" height="137.71"/>
			<g>
				<path class="st0" d="M428.16,382.63h-40.04V241.87h40.04V382.63z M391.17,379.58h33.93V244.92h-33.93V379.58z"/>
			</g>
		</g>
		<g>
			<g>
				<ellipse class="st2" cx="408.13" cy="312.25" rx="22.35" ry="18.1"/>
				<path class="st0" d="M408.13,331.88c-13.16,0-23.88-8.81-23.88-19.63c0-10.83,10.71-19.63,23.88-19.63
					c13.16,0,23.87,8.81,23.87,19.63C432.01,323.08,421.3,331.88,408.13,331.88z M408.13,295.68c-11.48,0-20.82,7.44-20.82,16.58
					c0,9.14,9.34,16.58,20.82,16.58c11.48,0,20.82-7.44,20.82-16.58C428.95,303.11,419.61,295.68,408.13,295.68z"/>
			</g>
			<g>
				<path class="st6" d="M414.96,317.29c1.27-1.38,1.98-2.54,1.98-4.33c0-2.01-1.05-3.24-2.98-3.24c-4.48,0-3.58,10.15-11.12,10.15
					c-3.55,0-6.16-2.09-6.83-5.78h-3.84v-2.98h3.73c0.22-2.28,1.27-4.78,2.83-6.46l2.91,1.94c-1.38,1.75-2.31,3.51-2.31,5.52
					c0,2.42,1.19,3.62,3.21,3.62c4.92,0,4.22-10.15,11.23-10.15c3.47,0,5.93,2.16,6.53,5.52h3.81v2.98h-3.73
					c-0.3,2.39-1.45,4.03-2.91,5.41L414.96,317.29z"/>
			</g>
		</g>
		<g>
			<path class="st2" d="M403.87,355.03c0-3.07,2.49-5.56,5.56-5.56c3.07,0,5.56,2.49,5.56,5.56c0,3.07-2.49,5.56-5.56,5.56
				C406.36,360.58,403.87,358.1,403.87,355.03z"/>
			<path class="st0" d="M409.43,362.11c-3.91,0-7.08-3.18-7.08-7.08c0-3.91,3.18-7.09,7.08-7.09c3.91,0,7.08,3.18,7.08,7.09
				C416.51,358.94,413.33,362.11,409.43,362.11z M409.43,351c-2.22,0-4.03,1.81-4.03,4.03c0,2.22,1.81,4.03,4.03,4.03
				c2.22,0,4.03-1.81,4.03-4.03C413.45,352.81,411.65,351,409.43,351z"/>
		</g>
		<g>
			<path class="st2" d="M403.87,271.58c0-3.07,2.49-5.56,5.56-5.56c3.07,0,5.56,2.49,5.56,5.56c0,3.07-2.49,5.56-5.56,5.56
				C406.36,277.13,403.87,274.65,403.87,271.58z"/>
			<path class="st0" d="M409.43,278.66c-3.91,0-7.08-3.18-7.08-7.08c0-3.91,3.18-7.09,7.08-7.09c3.91,0,7.08,3.18,7.08,7.09
				C416.51,275.48,413.33,278.66,409.43,278.66z M409.43,267.55c-2.22,0-4.03,1.81-4.03,4.03c0,2.22,1.81,4.03,4.03,4.03
				c2.22,0,4.03-1.81,4.03-4.03C413.45,269.35,411.65,267.55,409.43,267.55z"/>
		</g>
	</g>
	<g>
		<g>
			
				<rect x="445.1" y="234.15" transform="matrix(-1 -1.224647e-16 1.224647e-16 -1 945.6819 624.5016)" class="st2" width="55.48" height="156.21"/>
			<path class="st0" d="M502.11,391.88h-58.54V232.62h58.54V391.88z M446.63,388.83h52.42V235.68h-52.42V388.83z"/>
		</g>
		<g>
			<rect x="454.35" y="243.4" class="st2" width="36.99" height="137.71"/>
			<g>
				<path class="st0" d="M492.86,382.63h-40.04V241.87h40.04V382.63z M455.88,379.58h33.93V244.92h-33.93V379.58z"/>
			</g>
		</g>
		<g>
			<g>
				<ellipse class="st2" cx="472.84" cy="312.25" rx="22.35" ry="18.1"/>
				<path class="st0" d="M472.84,331.88c-13.16,0-23.87-8.81-23.87-19.63c0-10.83,10.71-19.63,23.87-19.63
					c13.16,0,23.87,8.81,23.87,19.63C496.72,323.08,486.01,331.88,472.84,331.88z M472.84,295.68c-11.48,0-20.82,7.44-20.82,16.58
					c0,9.14,9.34,16.58,20.82,16.58c11.48,0,20.82-7.44,20.82-16.58C493.66,303.11,484.32,295.68,472.84,295.68z"/>
			</g>
			<g>
				<path class="st6" d="M479.67,317.29c1.27-1.38,1.98-2.54,1.98-4.33c0-2.01-1.05-3.24-2.98-3.24c-4.48,0-3.58,10.15-11.12,10.15
					c-3.55,0-6.16-2.09-6.83-5.78h-3.84v-2.98h3.73c0.22-2.28,1.27-4.78,2.83-6.46l2.91,1.94c-1.38,1.75-2.31,3.51-2.31,5.52
					c0,2.42,1.19,3.62,3.21,3.62c4.92,0,4.22-10.15,11.23-10.15c3.47,0,5.93,2.16,6.53,5.52h3.81v2.98h-3.73
					c-0.3,2.39-1.45,4.03-2.91,5.41L479.67,317.29z"/>
			</g>
		</g>
		<g>
			<path class="st2" d="M468.58,355.03c0-3.07,2.49-5.56,5.56-5.56c3.07,0,5.56,2.49,5.56,5.56c0,3.07-2.49,5.56-5.56,5.56
				C471.06,360.58,468.58,358.1,468.58,355.03z"/>
			<path class="st0" d="M474.13,362.11c-3.91,0-7.08-3.18-7.08-7.08c0-3.91,3.18-7.09,7.08-7.09c3.91,0,7.08,3.18,7.08,7.09
				C481.22,358.94,478.04,362.11,474.13,362.11z M474.13,351c-2.22,0-4.03,1.81-4.03,4.03c0,2.22,1.81,4.03,4.03,4.03
				c2.22,0,4.03-1.81,4.03-4.03C478.16,352.81,476.36,351,474.13,351z"/>
		</g>
		<g>
			<path class="st2" d="M468.58,271.58c0-3.07,2.49-5.56,5.56-5.56c3.07,0,5.56,2.49,5.56,5.56c0,3.07-2.49,5.56-5.56,5.56
				C471.06,277.13,468.58,274.65,468.58,271.58z"/>
			<path class="st0" d="M474.13,278.66c-3.91,0-7.08-3.18-7.08-7.08c0-3.91,3.18-7.09,7.08-7.09c3.91,0,7.08,3.18,7.08,7.09
				C481.22,275.48,478.04,278.66,474.13,278.66z M474.13,267.55c-2.22,0-4.03,1.81-4.03,4.03c0,2.22,1.81,4.03,4.03,4.03
				c2.22,0,4.03-1.81,4.03-4.03C478.16,269.35,476.36,267.55,474.13,267.55z"/>
		</g>
	</g>
	<rect x="373.3" y="290.29" class="st5" width="138.12" height="119.95"/>
	<path class="st0" d="M512.95,411.77H371.77V288.77h141.18V411.77z M374.82,408.72h135.07V291.82H374.82V408.72z"/>
	<g>
		<rect x="478.71" y="290.29" class="st6" width="32.71" height="119.95"/>
		<path class="st0" d="M512.95,411.77h-35.77V288.77h35.77V411.77z M480.23,408.72h29.66V291.82h-29.66V408.72z"/>
	</g>
	<line class="st5" x1="384.2" y1="304.83" x2="467.8" y2="304.83"/>
	<g>
		<g>
			<rect x="384.2" y="303.31" class="st2" width="1.53" height="3.06"/>
		</g>
		<g>
			<path class="st2" d="M464.72,306.36h-3.1v-3.06h3.1V306.36z M460.08,306.36h-3.1v-3.06h3.1V306.36z M455.43,306.36h-3.1v-3.06
				h3.1V306.36z M450.78,306.36h-3.1v-3.06h3.1V306.36z M446.14,306.36h-3.1v-3.06h3.1V306.36z M441.49,306.36h-3.1v-3.06h3.1
				V306.36z M436.84,306.36h-3.1v-3.06h3.1V306.36z M432.2,306.36h-3.1v-3.06h3.1V306.36z M427.55,306.36h-3.1v-3.06h3.1V306.36z
				 M422.9,306.36h-3.1v-3.06h3.1V306.36z M418.26,306.36h-3.1v-3.06h3.1V306.36z M413.61,306.36h-3.1v-3.06h3.1V306.36z
				 M408.96,306.36h-3.1v-3.06h3.1V306.36z M404.32,306.36h-3.1v-3.06h3.1V306.36z M399.67,306.36h-3.1v-3.06h3.1V306.36z
				 M395.02,306.36h-3.1v-3.06h3.1V306.36z M390.38,306.36h-3.1v-3.06h3.1V306.36z"/>
		</g>
		<g>
			<rect x="466.27" y="303.31" class="st2" width="1.53" height="3.06"/>
		</g>
	</g>
	<g>
		<line class="st5" x1="384.2" y1="395.7" x2="467.8" y2="395.7"/>
		<g>
			<g>
				<rect x="384.2" y="394.18" class="st0" width="1.53" height="3.06"/>
			</g>
			<g>
				<path class="st0" d="M464.72,397.23h-3.1v-3.06h3.1V397.23z M460.08,397.23h-3.1v-3.06h3.1V397.23z M455.43,397.23h-3.1v-3.06
					h3.1V397.23z M450.78,397.23h-3.1v-3.06h3.1V397.23z M446.14,397.23h-3.1v-3.06h3.1V397.23z M441.49,397.23h-3.1v-3.06h3.1
					V397.23z M436.84,397.23h-3.1v-3.06h3.1V397.23z M432.2,397.23h-3.1v-3.06h3.1V397.23z M427.55,397.23h-3.1v-3.06h3.1V397.23z
					 M422.9,397.23h-3.1v-3.06h3.1V397.23z M418.26,397.23h-3.1v-3.06h3.1V397.23z M413.61,397.23h-3.1v-3.06h3.1V397.23z
					 M408.96,397.23h-3.1v-3.06h3.1V397.23z M404.32,397.23h-3.1v-3.06h3.1V397.23z M399.67,397.23h-3.1v-3.06h3.1V397.23z
					 M395.02,397.23h-3.1v-3.06h3.1V397.23z M390.38,397.23h-3.1v-3.06h3.1V397.23z"/>
			</g>
			<g>
				<rect x="466.27" y="394.18" class="st0" width="1.53" height="3.06"/>
			</g>
		</g>
	</g>
	<g>
		<path class="st6" d="M532.62,362.32h-38.76c-2.33,0-4.24-1.91-4.24-4.24v-24.83h43.01c2.33,0,4.24,1.91,4.24,4.24v20.59
			C536.86,360.41,534.95,362.32,532.62,362.32z"/>
		<path class="st0" d="M530.38,363.84H496.1c-4.42,0-8.01-3.6-8.01-8.01v-24.12h42.29c4.42,0,8.01,3.6,8.01,8.01v16.11
			C538.39,360.25,534.8,363.84,530.38,363.84z M491.14,334.77v21.06c0,2.73,2.22,4.96,4.96,4.96h34.28c2.73,0,4.96-2.22,4.96-4.96
			v-16.11c0-2.73-2.22-4.96-4.96-4.96H491.14z"/>
	</g>
	<path class="st2" d="M514.13,348.11c-0.19-3.26,2.31-6.06,5.57-6.25c3.26-0.19,6.06,2.31,6.25,5.57s-2.31,6.06-5.57,6.25
		C517.11,353.87,514.32,351.38,514.13,348.11z"/>
	<g>
		<path class="st6" d="M474.5,273.97v-10.31c0-11.66-26.26-21.05-37.89-21.18v-0.01l103.06-0.08v0.01
			c11.63,0.14,19.04,9.6,19.04,21.27v10.31H474.5z"/>
		<path class="st0" d="M560.23,275.5h-87.26v-11.84c0-10.13-24.71-19.52-36.38-19.66l-1.51-0.02v-3.04l1.53-0.01l104.59-0.08v0.08
			c11.12,0.9,19.04,10.22,19.04,22.72V275.5z M476.02,272.45h81.15v-8.78c0-11.5-7.21-19.62-17.53-19.74l-0.46-0.01l-87.1,0.07
			c11.62,3.77,23.94,10.8,23.94,19.67V272.45z"/>
	</g>
	<g>
		<path class="st2" d="M417.18,383.41V263.67c0-11.66,9.39-21.13,21.02-21.27v-0.01h100.99v0.01c-11.63,0.14-17.33,9.6-17.33,21.27
			v119.75c0,14.82-12.01,26.83-26.83,26.83c-31.38,0-97.57,0-97.57,0v-0.96C408.83,406.16,417.18,395.77,417.18,383.41z"/>
		<g>
			<path class="st0" d="M397.46,411.77c-0.41,0-0.79-0.16-1.08-0.45s-0.45-0.67-0.45-1.08v-0.96c0-0.69,0.46-1.29,1.12-1.47
				c10.95-3,18.6-13.03,18.6-24.39V263.67c0-12.37,10.03-22.57,22.39-22.79c0.05,0,0.1-0.01,0.16-0.01h100.99
				c0.84,0,1.53,0.68,1.53,1.53c0,0.84-0.67,1.52-1.51,1.53c-11.66,0.14-15.82,10.29-15.82,19.74v119.74
				c0,15.64-12.72,28.36-28.36,28.36L397.46,411.77z M438.34,243.92c-0.04,0-0.08,0.01-0.12,0.01
				c-10.76,0.13-19.51,8.98-19.51,19.74v119.74c0,10.81-6.18,20.55-15.56,25.3l91.88,0c13.95,0,25.3-11.35,25.3-25.3V263.67
				c0-9.04,3.21-16.01,8.68-19.74H438.34z"/>
		</g>
	</g>
	<g>
		<path class="st2" d="M477.6,386.48v2.49c0,11.66,7.45,21.13,19.08,21.26v0.01H393.94v-0.01c-11.63-0.14-21.02-9.6-21.02-21.26
			v-2.49H477.6z"/>
		<g>
			<path class="st0" d="M496.68,411.77H393.94c-0.06,0-0.12,0-0.18-0.01c-12.35-0.23-22.37-10.42-22.37-22.79v-2.49
				c0-0.84,0.68-1.53,1.53-1.53H477.6c0.84,0,1.53,0.68,1.53,1.53v2.49c0,11.5,7.23,19.62,17.57,19.74
				c0.84,0.01,1.51,0.69,1.51,1.53C498.21,411.08,497.53,411.77,496.68,411.77z M394.09,408.72h91.96
				c-6.12-3.84-9.98-11.02-9.98-19.74v-0.96H374.46v0.96c0,10.76,8.75,19.61,19.51,19.74C394.01,408.71,394.05,408.71,394.09,408.72
				z"/>
		</g>
	</g>
	<path class="st7" d="M446.2,270.04c7.7-8.32,19.25-11.89,30.3-9.38c5.53,1.26,10.51,3.94,14.52,7.66l-21.55,23.27L446.2,270.04z"/>
	<path class="st0" d="M469.56,293.75l-25.52-23.63l1.04-1.12c8.04-8.69,20.21-12.46,31.76-9.83c5.68,1.29,10.95,4.07,15.22,8.03
		l1.12,1.04L469.56,293.75z M448.39,269.98l21,19.45l19.45-21c-3.66-3.06-8.01-5.22-12.68-6.28
		C466.18,259.88,455.68,262.88,448.39,269.98z"/>
	<g>
		<path class="st2" d="M491.03,268.32c4.02,3.72,7.07,8.48,8.75,13.89c2.24,7.23,1.79,14.9-1.06,21.67l-29.24-12.29L491.03,268.32z"
			/>
		<g>
			<path class="st0" d="M498.72,305.41c-0.2,0-0.4-0.04-0.59-0.12L468.88,293c-0.46-0.19-0.8-0.6-0.9-1.09
				c-0.11-0.49,0.03-1,0.37-1.36l21.55-23.28c0.28-0.3,0.66-0.47,1.06-0.49c0.43-0.03,0.8,0.13,1.1,0.41
				c4.28,3.96,7.45,9,9.17,14.56c2.31,7.45,1.91,15.52-1.11,22.72c-0.16,0.37-0.46,0.67-0.83,0.82
				C499.11,305.37,498.92,305.41,498.72,305.41z M472.08,291.03l25.79,10.84c2.23-6.16,2.4-12.92,0.45-19.2
				c-1.41-4.57-3.9-8.74-7.23-12.16L472.08,291.03z"/>
		</g>
	</g>
	<path class="st4" d="M498.72,303.88c-1.41,3.36-3.41,6.5-5.97,9.26c-7.7,8.32-19.25,11.89-30.3,9.38
		c-11.05-2.51-19.92-10.73-23.27-21.55c-3.35-10.83-0.67-22.62,7.03-30.93l23.27,21.55L498.72,303.88z"/>
	<path class="st0" d="M469.44,324.83c-2.44,0-4.89-0.27-7.32-0.82c-11.55-2.62-20.89-11.28-24.4-22.59
		c-3.5-11.31-0.68-23.73,7.36-32.42l1.04-1.12l24.2,22.41l30.4,12.78l-0.59,1.41c-1.51,3.59-3.61,6.85-6.26,9.71
		C487.52,321.04,478.59,324.83,469.44,324.83z M446.31,272.23c-6.53,7.81-8.71,18.51-5.68,28.29c3.18,10.27,11.67,18.13,22.15,20.51
		c10.48,2.39,21.54-1.04,28.84-8.93c2.05-2.22,3.75-4.71,5.05-7.42l-28.05-11.79L446.31,272.23z"/>
	<g>
		<g>
			<path class="st0" d="M505.27,347.56h-3.06v-3.06h3.06V347.56z M499.15,347.56h-15.28v-3.06h15.28V347.56z M480.82,347.56h-3.06
				v-3.06h3.06V347.56z M462.48,347.56h-3.06v-3.06h3.06V347.56z M456.37,347.56h-15.28v-3.06h15.28V347.56z M438.03,347.56h-3.06
				v-3.06h3.06V347.56z"/>
		</g>
		<g>
			<path class="st0" d="M505.27,359.32h-3.06v-3.06h3.06V359.32z M499.15,359.32h-15.28v-3.06h15.28V359.32z M480.82,359.32h-3.06
				v-3.06h3.06V359.32z M462.48,359.32h-3.06v-3.06h3.06V359.32z M456.37,359.32h-15.28v-3.06h15.28V359.32z M438.03,359.32h-3.06
				v-3.06h3.06V359.32z"/>
		</g>
		<g>
			<path class="st0" d="M505.27,371.08h-3.06v-3.06h3.06V371.08z M499.15,371.08h-15.28v-3.06h15.28V371.08z M480.82,371.08h-3.06
				v-3.06h3.06V371.08z M462.48,371.08h-3.06v-3.06h3.06V371.08z M456.37,371.08h-15.28v-3.06h15.28V371.08z M438.03,371.08h-3.06
				v-3.06h3.06V371.08z"/>
		</g>
		<g>
			<rect x="433" y="345.79" class="st2" width="23.18" height="24.12"/>
			<path class="st0" d="M456.18,371.43H433c-0.84,0-1.53-0.68-1.53-1.53v-24.12c0-0.84,0.68-1.53,1.53-1.53h23.18
				c0.84,0,1.53,0.68,1.53,1.53v24.12C457.71,370.75,457.03,371.43,456.18,371.43z M434.53,368.38h20.12v-21.06h-20.12V368.38z"/>
		</g>
	</g>
	<g>
		<rect x="906.45" y="324.51" class="st2" width="16.52" height="65.59"/>
		<g>
			<path class="st0" d="M924.5,391.62h-19.57v-68.64h19.57V391.62z M907.98,388.57h13.46v-62.53h-13.46V388.57z"/>
		</g>
	</g>
	<rect x="896.61" y="379.13" class="st4" width="36.22" height="10.97"/>
	<path class="st0" d="M934.35,391.62h-39.27V377.6h39.27V391.62z M898.13,388.57h33.16v-7.91h-33.16V388.57z"/>
	<g>
		<rect x="956.71" y="324.51" class="st2" width="16.52" height="65.59"/>
		<g>
			<path class="st0" d="M974.76,391.62h-19.57v-68.64h19.57V391.62z M958.24,388.57h13.46v-62.53h-13.46V388.57z"/>
		</g>
	</g>
	<g>
		<rect x="946.86" y="379.13" class="st6" width="36.22" height="10.97"/>
		<path class="st0" d="M984.61,391.62h-39.27V377.6h39.27V391.62z M948.39,388.57h33.16v-7.91h-33.16V388.57z"/>
	</g>
	<g>
		<rect x="1006.97" y="324.51" class="st2" width="16.52" height="65.59"/>
		<g>
			<path class="st0" d="M1025.02,391.62h-19.58v-68.64h19.58V391.62z M1008.5,388.57h13.46v-62.53h-13.46V388.57z"/>
		</g>
	</g>
	<rect x="997.12" y="379.13" class="st4" width="36.22" height="10.97"/>
	<path class="st0" d="M1034.86,391.62h-39.27V377.6h39.27V391.62z M998.65,388.57h33.16v-7.91h-33.16V388.57z"/>
	<g>
		<rect x="887.22" y="389.84" class="st2" width="156.28" height="10.2"/>
		<g>
			<path class="st0" d="M1045.03,401.57H885.69v-13.26h159.34V401.57z M888.75,398.51h153.23v-7.15H888.75V398.51z"/>
		</g>
	</g>
	<linearGradient id="SVGID_1_" gradientUnits="userSpaceOnUse" x1="879.208" y1="405.1423" x2="1051.5208" y2="405.1423">
		<stop  offset="0" style="stop-color:#00A0D8"/>
		<stop  offset="1" style="stop-color:#00A0D8"/>
	</linearGradient>
	<rect x="879.21" y="400.04" class="st8" width="172.31" height="10.2"/>
	<path class="st0" d="M1053.05,411.77H877.68v-13.26h175.37V411.77z M880.74,408.72h169.26v-7.15H880.74V408.72z"/>
	<g>
		<rect x="892.37" y="314.31" class="st6" width="145.99" height="10.2"/>
		<path class="st0" d="M1039.89,326.04H890.84v-13.26h149.04V326.04z M893.9,322.98h142.93v-7.15H893.9V322.98z"/>
	</g>
	<linearGradient id="SVGID_2_" gradientUnits="userSpaceOnUse" x1="906.454" y1="288.4544" x2="1023.4868" y2="288.4544">
		<stop  offset="0" style="stop-color:#00A0D8"/>
		<stop  offset="1" style="stop-color:#00A0D8"/>
	</linearGradient>
	<polygon class="st9" points="906.45,314.31 965.36,262.6 1023.49,314.31 	"/>
	<path class="st0" d="M1027.5,315.83H902.4l62.98-55.27L1027.5,315.83z M910.51,312.78h108.96l-54.11-48.14L910.51,312.78z"/>
	<g>
		<line class="st6" x1="983.07" y1="290.35" x2="997.12" y2="302.82"/>
		<path class="st2" d="M997.12,304.35c-0.36,0-0.72-0.13-1.01-0.38l-14.05-12.47c-0.63-0.56-0.69-1.53-0.13-2.16
			c0.56-0.63,1.53-0.69,2.16-0.13l14.05,12.47c0.63,0.56,0.69,1.53,0.13,2.16C997.96,304.18,997.54,304.35,997.12,304.35z"/>
	</g>
	<g>
		<path class="st2" d="M948.72,289.98c-0.43,0-0.85-0.18-1.15-0.53c-0.56-0.64-0.49-1.6,0.15-2.15l17.26-15.03l12.31,10.92
			c0.63,0.56,0.69,1.53,0.13,2.16c-0.56,0.63-1.53,0.69-2.16,0.13l-10.3-9.14l-15.24,13.27
			C949.43,289.86,949.07,289.98,948.72,289.98z"/>
	</g>
	<g>
		<line class="st6" x1="928.85" y1="305.75" x2="944.11" y2="292.47"/>
		<path class="st2" d="M928.85,307.28c-0.43,0-0.85-0.18-1.15-0.53c-0.55-0.64-0.49-1.6,0.15-2.15l15.25-13.28
			c0.63-0.55,1.6-0.49,2.15,0.15c0.56,0.64,0.49,1.6-0.15,2.15l-15.25,13.28C929.57,307.15,929.21,307.28,928.85,307.28z"/>
	</g>
	<g>
		<path class="st2" d="M434.93,410.24H307.52c-1.84,0-3.33-1.49-3.33-3.33v-63.29c0-1.84,1.49-3.33,3.33-3.33h127.41
			c1.84,0,3.33,1.49,3.33,3.33v63.29C438.26,408.75,436.77,410.24,434.93,410.24z"/>
		<path class="st0" d="M433.17,411.77H309.28c-3.65,0-6.62-2.97-6.62-6.62v-59.77c0-3.65,2.97-6.62,6.62-6.62h123.89
			c3.65,0,6.62,2.97,6.62,6.62v59.77C439.78,408.8,436.82,411.77,433.17,411.77z M309.28,341.82c-1.96,0-3.56,1.6-3.56,3.56v59.77
			c0,1.96,1.6,3.56,3.56,3.56h123.89c1.96,0,3.56-1.6,3.56-3.56v-59.77c0-1.96-1.6-3.56-3.56-3.56H309.28z"/>
	</g>
	<rect x="304.19" y="357.64" class="st4" width="134.07" height="11.66"/>
	<path class="st0" d="M439.78,370.82H302.66v-14.71h137.13V370.82z M305.71,367.77h131.02v-8.6H305.71V367.77z"/>
	<g>
		<path class="st2" d="M362.84,380.67c13.83,0,27.66,0,41.49,0"/>
		<rect x="362.84" y="379.15" class="st0" width="41.49" height="3.06"/>
	</g>
	<g>
		<path class="st2" d="M312.76,380.67c14.83,0,29.67,0,44.5,0"/>
		<rect x="312.76" y="379.15" class="st0" width="44.5" height="3.06"/>
	</g>
	<g>
		<line class="st2" x1="312.76" y1="390.67" x2="344.16" y2="390.67"/>
		<rect x="312.76" y="389.14" class="st0" width="31.4" height="3.06"/>
	</g>
	<g>
		<line class="st2" x1="347.84" y1="390.67" x2="365" y2="390.67"/>
		<rect x="347.84" y="389.14" class="st0" width="17.16" height="3.06"/>
	</g>
	<g>
		<line class="st2" x1="312.76" y1="397.45" x2="344.16" y2="397.45"/>
		<rect x="312.76" y="395.92" class="st0" width="31.4" height="3.06"/>
	</g>
	<g>
		<line class="st2" x1="347.84" y1="397.45" x2="365" y2="397.45"/>
		<rect x="347.84" y="395.92" class="st0" width="17.16" height="3.06"/>
	</g>
	<g>
		<line class="st2" x1="368.47" y1="390.67" x2="385.63" y2="390.67"/>
		<rect x="368.47" y="389.14" class="st0" width="17.16" height="3.06"/>
	</g>
	<g>
		<path class="st2" d="M948.55,268.81c2.48,3.46,1.69,8.29-1.77,10.78l-43.92,31.53c-3.46,2.49-8.29,1.69-10.78-1.77l0,0
			c-2.49-3.46-1.69-8.29,1.77-10.78l43.92-31.53C941.23,264.56,946.06,265.35,948.55,268.81L948.55,268.81z"/>
		<path class="st0" d="M898.37,314.11c-0.5,0-1.01-0.04-1.52-0.12c-2.44-0.4-4.58-1.73-6.02-3.73c-1.44-2.01-2.02-4.45-1.61-6.89
			c0.4-2.44,1.73-4.58,3.73-6.02l43.92-31.53c4.14-2.97,9.94-2.03,12.91,2.12l0,0c2.97,4.15,2.02,9.94-2.13,12.91l-43.92,31.53
			C902.16,313.51,900.29,314.11,898.37,314.11z M942.26,267.12c-1.25,0-2.51,0.38-3.6,1.16l-43.92,31.53
			c-1.34,0.96-2.23,2.4-2.5,4.03c-0.27,1.63,0.11,3.27,1.08,4.61c0.97,1.35,2.4,2.23,4.03,2.5c1.63,0.26,3.27-0.12,4.61-1.08
			l43.92-31.53c2.77-1.99,3.41-5.87,1.42-8.65C946.1,268.02,944.19,267.12,942.26,267.12z"/>
	</g>
	<g>
		<path class="st2" d="M965.78,276.54c2.49,3.47,1.7,8.29-1.77,10.78l-43.92,31.53c-3.47,2.49-8.29,1.7-10.78-1.77l0,0
			c-2.49-3.46-1.69-8.29,1.77-10.78l43.92-31.53C958.47,272.28,963.29,273.07,965.78,276.54L965.78,276.54z"/>
		<path class="st0" d="M915.6,321.82c-2.88,0-5.72-1.34-7.53-3.85c-1.44-2.01-2.01-4.46-1.61-6.89c0.4-2.44,1.73-4.58,3.73-6.02
			l43.92-31.53c2.01-1.44,4.45-2.02,6.89-1.61c2.44,0.4,4.57,1.73,6.01,3.73c1.44,2.01,2.02,4.46,1.62,6.9
			c-0.4,2.44-1.73,4.58-3.73,6.02l-43.92,31.53C919.35,321.26,917.47,321.82,915.6,321.82z M959.5,274.85c-1.28,0-2.53,0.4-3.6,1.17
			l-43.92,31.53c-1.34,0.96-2.23,2.4-2.5,4.03c-0.27,1.63,0.11,3.27,1.08,4.62c1.99,2.77,5.87,3.41,8.65,1.42l43.92-31.53
			c1.34-0.97,2.23-2.4,2.5-4.03c0.27-1.63-0.12-3.27-1.08-4.62l0,0c-0.96-1.34-2.39-2.23-4.02-2.5
			C960.17,274.87,959.83,274.85,959.5,274.85z"/>
	</g>
	<g>
		<path class="st2" d="M961.89,299.71c2.49,3.47,1.7,8.29-1.77,10.78l-43.92,31.54c-3.47,2.49-8.29,1.7-10.78-1.77l0,0
			c-2.49-3.47-1.7-8.29,1.76-10.78l43.92-31.53C954.57,295.45,959.4,296.24,961.89,299.71L961.89,299.71z"/>
		<path class="st0" d="M911.71,345c-2.88,0-5.72-1.34-7.53-3.85c-2.97-4.14-2.03-9.93,2.11-12.91l43.93-31.53
			c4.14-2.97,9.93-2.03,12.91,2.12l0,0c1.44,2.01,2.01,4.46,1.61,6.89s-1.73,4.57-3.74,6.02l-43.92,31.54
			C915.46,344.43,913.57,345,911.71,345z M955.61,298.02c-1.25,0-2.51,0.38-3.61,1.16l-43.92,31.53c-2.77,1.99-3.41,5.87-1.41,8.65
			c1.99,2.77,5.87,3.41,8.65,1.42l43.92-31.54c1.34-0.97,2.23-2.4,2.5-4.03c0.27-1.63-0.12-3.27-1.08-4.62
			C959.44,298.92,957.53,298.02,955.61,298.02z"/>
	</g>
	<g>
		<path class="st2" d="M958.06,323.58c2.49,3.46,1.7,8.29-1.77,10.78l-43.92,31.54c-3.46,2.49-8.29,1.69-10.78-1.77l0,0
			c-2.49-3.46-1.7-8.29,1.77-10.78l43.92-31.54C950.74,319.33,955.57,320.12,958.06,323.58L958.06,323.58z"/>
		<path class="st0" d="M907.88,368.88c-0.5,0-1.01-0.04-1.52-0.13c-2.44-0.4-4.57-1.73-6.02-3.73c-1.44-2.01-2.01-4.45-1.61-6.89
			c0.4-2.44,1.73-4.58,3.73-6.02l43.92-31.53c2.01-1.44,4.45-2.01,6.89-1.61c2.44,0.4,4.57,1.73,6.01,3.73l0,0
			c1.44,2,2.02,4.45,1.62,6.89c-0.4,2.44-1.73,4.58-3.74,6.02l-43.92,31.53C911.67,368.28,909.8,368.88,907.88,368.88z
			 M951.77,321.89c-1.28,0-2.53,0.4-3.6,1.16l-43.92,31.53c-1.34,0.96-2.23,2.4-2.5,4.03c-0.27,1.63,0.12,3.27,1.08,4.62
			c0.97,1.34,2.4,2.23,4.03,2.5c1.64,0.27,3.27-0.12,4.62-1.08l43.92-31.53c1.35-0.97,2.23-2.4,2.5-4.03
			c0.27-1.63-0.12-3.27-1.08-4.61l0,0c-0.96-1.34-2.39-2.23-4.03-2.5C952.45,321.92,952.11,321.89,951.77,321.89z"/>
	</g>
	<g>
		<path class="st2" d="M943.73,376.82c0,2.92-2.38,5.29-5.33,5.29h-68.75c-2.94,0-5.33-2.36-5.33-5.29V254.73
			c0-2.92,2.39-5.29,5.33-5.29h68.75c2.95,0,5.33,2.37,5.33,5.29V376.82z"/>
		<path class="st0" d="M938.41,383.63h-68.75c-3.78,0-6.86-3.06-6.86-6.82V254.73c0-3.76,3.08-6.82,6.86-6.82h68.75
			c3.78,0,6.85,3.06,6.85,6.82v122.08C945.26,380.58,942.19,383.63,938.41,383.63z M869.66,250.97c-2.1,0-3.8,1.69-3.8,3.76v122.08
			c0,2.07,1.71,3.76,3.8,3.76h68.75c2.09,0,3.8-1.69,3.8-3.76V254.73c0-2.07-1.7-3.76-3.8-3.76H869.66z"/>
	</g>
	<rect x="872.56" y="264.63" class="st5" width="62.94" height="100.23"/>
	<g>
		<path class="st2" d="M900.03,378.78c10.84,7.66,26.34,20.88,38.71,31.47h59.75l-6.97-11c-0.9-4.53-3.69-8.74-3.69-13.29
			c0-3.36,2.27-6.76,2.27-14.03c0-3.5-0.62-6.98-1.99-10.56l-16.7-26.57c-1.39-2.24-5.05-2.48-8.16-0.54l-1.02,0.64
			c-3.11,1.94-4.5,5.32-3.11,7.56l11.35,18.06l-0.65-0.13l-16.63-26.47c-1.4-2.23-5.05-2.47-8.16-0.53l-1.02,0.64
			c-3.11,1.94-4.51,5.32-3.11,7.56l9.34,14.87l-0.42-0.09l-11.38-18.1c-1.4-2.24-5.05-2.48-8.16-0.54l-1.02,0.64
			c-3.11,1.94-4.51,5.33-3.11,7.56l10.33,16.43l-0.41,0.22l-21.92-35.15c-1.4-2.24-5.05-2.49-8.16-0.54l-1.03,0.64
			c-3.11,1.94-4.5,5.33-3.1,7.56l25.71,41.23c0,0,2.9,7.13-5.8,0.63l-0.02,0.03l-13.89-10.38c-2.22-1.42-5.62-0.08-7.6,3.01
			l-0.65,1.01C897.62,373.7,897.81,377.35,900.03,378.78z"/>
		<g>
			<path class="st0" d="M998.49,411.77h-59.75c-0.36,0-0.72-0.13-0.99-0.37c-11.64-9.96-27.58-23.59-38.58-31.36
				c-1.18-0.77-1.98-1.98-2.31-3.49c-0.47-2.14,0.06-4.61,1.45-6.76l0.65-1.01c2.47-3.85,6.74-5.38,9.71-3.47l13.75,10.27
				c0.09,0.04,0.17,0.09,0.25,0.15c2.06,1.54,3.21,2.1,3.79,2.31c-0.05-0.31-0.15-0.7-0.28-1.03l-25.64-41.11
				c-1.87-3-0.29-7.24,3.59-9.67l1.03-0.64c1.77-1.11,3.79-1.65,5.64-1.53c2.02,0.13,3.71,1.07,4.63,2.56l9.19,14.74
				c0.71-1.67,2.05-3.19,3.81-4.29l1.02-0.64c3.67-2.29,7.9-2.02,9.94,0.55c0.71-1.65,2.05-3.16,3.8-4.25l1.02-0.64
				c3.89-2.43,8.4-1.98,10.27,1.01l3.08,4.9c0-0.01,0.01-0.02,0.01-0.03c0.71-1.72,2.08-3.28,3.85-4.38l1.01-0.64
				c2.18-1.36,4.66-1.86,6.8-1.36c1.52,0.36,2.72,1.18,3.47,2.39l16.69,26.56c0.05,0.08,0.1,0.17,0.13,0.27
				c1.41,3.68,2.09,7.31,2.09,11.11c0,4.54-0.84,7.61-1.51,10.08c-0.42,1.56-0.76,2.79-0.76,3.95c0,2.42,0.9,4.8,1.86,7.33
				c0.66,1.73,1.33,3.51,1.74,5.38l6.82,10.77c0.3,0.47,0.32,1.07,0.05,1.56C999.56,411.47,999.05,411.77,998.49,411.77z
				 M939.31,408.72h56.4l-5.49-8.65c-0.1-0.16-0.17-0.33-0.21-0.52c-0.34-1.72-0.98-3.4-1.66-5.18c-1.01-2.67-2.06-5.43-2.06-8.41
				c0-1.56,0.4-3.04,0.87-4.75c0.62-2.3,1.4-5.15,1.4-9.28c0-3.37-0.6-6.6-1.83-9.88l-16.62-26.44c-0.4-0.64-1.08-0.91-1.57-1.03
				c-1.33-0.31-3.01,0.05-4.48,0.97l-1.02,0.64c-1.22,0.76-2.18,1.84-2.64,2.95c-0.23,0.56-0.53,1.62,0.02,2.5l11.35,18.06
				c0.32,0.52,0.31,1.17-0.03,1.68c-0.34,0.5-0.96,0.75-1.55,0.64l-0.65-0.13c-0.41-0.08-0.78-0.33-1-0.69l-16.63-26.47
				c-0.93-1.49-3.7-1.51-6.06-0.05l-1.02,0.64c-1.48,0.92-2.54,2.26-2.85,3.59c-0.11,0.5-0.17,1.23,0.23,1.87l9.34,14.86
				c0.33,0.52,0.31,1.18-0.04,1.69c-0.35,0.5-0.97,0.75-1.57,0.62l-0.42-0.09c-0.4-0.09-0.76-0.33-0.98-0.68l-11.38-18.1
				c-0.94-1.5-3.71-1.53-6.06-0.06l-1.02,0.64c-1.48,0.92-2.54,2.27-2.85,3.6c-0.11,0.5-0.17,1.23,0.23,1.86l10.33,16.42
				c0.23,0.36,0.29,0.8,0.18,1.21c-0.11,0.41-0.38,0.76-0.76,0.96l-0.41,0.22c-0.71,0.38-1.59,0.14-2.01-0.54l-21.92-35.15
				c-0.55-0.88-1.64-1.08-2.24-1.13c-1.2-0.07-2.6,0.31-3.81,1.07l-1.03,0.64c-2.35,1.47-3.55,3.97-2.62,5.46l25.71,41.23
				c0.05,0.07,0.09,0.15,0.12,0.23c0.34,0.83,1.3,3.63-0.41,4.96c-1.47,1.13-3.71,0.43-7.48-2.35c-0.09-0.04-0.17-0.09-0.25-0.15
				l-13.89-10.38c-1.39-0.89-3.91,0.28-5.4,2.61l-0.65,1.01c-0.94,1.46-1.33,3.13-1.03,4.46c0.11,0.5,0.37,1.19,1,1.59
				c0.02,0.01,0.04,0.03,0.06,0.04C911.89,385.28,927.65,398.75,939.31,408.72z"/>
		</g>
	</g>
	<g>
		<path class="st2" d="M842.1,410.24l22.94-30.79c-0.45-0.78-0.71-1.68-0.71-2.64V353.1c4.86-5.21,6.32-14.32,6.32-22.66
			c0-5.07-1.42-18-5.35-22.83c2.37-3.27,8.25-9.65,8.25-9.65l17.53-7.09c3.99-1.51,5.94-6.09,4.38-10.23
			c-1.57-4.14-6.07-6.26-10.07-4.75l-14.53,5.88c-3.24,0.88-5.24,1.85-6.53,2.72c-1.35,0.91-1.95,1.71-2.36,2.22l-15.35,19.89
			c-1.27,1.65-2.02,3.64-2.16,5.72l-1.9,29.82l-56,68.11H842.1z"/>
		<g>
			<path class="st0" d="M842.1,411.77h-55.53c-0.59,0-1.13-0.34-1.38-0.88c-0.25-0.53-0.17-1.17,0.2-1.62l55.68-67.73l1.87-29.32
				c0.15-2.39,1.01-4.66,2.47-6.56l15.49-20.07c0.43-0.53,1.16-1.42,2.58-2.37c1.7-1.14,3.96-2.09,6.9-2.9l14.44-5.85
				c4.8-1.82,10.2,0.71,12.07,5.62c1.87,4.92-0.49,10.39-5.26,12.2l-17.18,6.95c-1,1.09-4.99,5.48-7.24,8.38
				c3.71,5.76,4.98,17.85,4.98,22.81c0,7.33-1.11,17.23-6.32,23.25v23.12c0,0.66,0.17,1.29,0.51,1.87c0.3,0.53,0.27,1.19-0.1,1.68
				l-22.94,30.79C843.04,411.54,842.58,411.77,842.1,411.77z M789.8,408.72h51.53l21.94-29.44c-0.31-0.79-0.47-1.62-0.47-2.46V353.1
				c0-0.39,0.15-0.76,0.41-1.04c4.89-5.24,5.91-14.65,5.91-21.62c0-5.31-1.51-17.57-5.01-21.87c-0.44-0.54-0.46-1.3-0.05-1.86
				c2.4-3.3,8.12-9.52,8.36-9.79c0.15-0.17,0.34-0.3,0.55-0.38l17.53-7.09c3.22-1.22,4.79-4.93,3.52-8.27
				c-1.27-3.34-4.9-5.08-8.1-3.86l-14.49,5.87c-0.06,0.02-0.11,0.04-0.17,0.06c-2.62,0.71-4.67,1.56-6.08,2.51
				c-1.04,0.7-1.52,1.29-1.91,1.77l-0.13,0.16l-15.31,19.85c-1.09,1.41-1.73,3.1-1.84,4.88l-1.9,29.82
				c-0.02,0.32-0.14,0.63-0.34,0.87L789.8,408.72z"/>
		</g>
	</g>
	<g class="st3">
		<path class="st4" d="M1014.84,264.13c-3.37,0-6.11-2.74-6.11-6.11c0-3.37,2.74-6.11,6.11-6.11c3.37,0,6.11,2.74,6.11,6.11
			C1020.96,261.39,1018.22,264.13,1014.84,264.13z M1014.84,254.96c-1.68,0-3.06,1.37-3.06,3.06s1.37,3.06,3.06,3.06
			c1.68,0,3.06-1.37,3.06-3.06S1016.53,254.96,1014.84,254.96z"/>
	</g>
	<g class="st3">
		<path class="st4" d="M895.65,201.47c-3.37,0-6.11-2.74-6.11-6.11c0-3.37,2.74-6.11,6.11-6.11c3.37,0,6.11,2.74,6.11,6.11
			C901.76,198.73,899.02,201.47,895.65,201.47z M895.65,192.31c-1.68,0-3.06,1.37-3.06,3.06c0,1.68,1.37,3.06,3.06,3.06
			c1.68,0,3.06-1.37,3.06-3.06C898.71,193.68,897.33,192.31,895.65,192.31z"/>
	</g>
	<g class="st3">
		<path class="st4" d="M687.82,207.59c-3.37,0-6.11-2.74-6.11-6.11s2.74-6.11,6.11-6.11c3.37,0,6.11,2.74,6.11,6.11
			S691.19,207.59,687.82,207.59z M687.82,198.42c-1.68,0-3.06,1.37-3.06,3.06s1.37,3.06,3.06,3.06c1.68,0,3.06-1.37,3.06-3.06
			S689.51,198.42,687.82,198.42z"/>
	</g>
	<g class="st3">
		<path class="st4" d="M516.87,178.19c-4.63,0-8.4-3.77-8.4-8.4c0-4.63,3.77-8.4,8.4-8.4c4.63,0,8.4,3.77,8.4,8.4
			C525.28,174.41,521.51,178.19,516.87,178.19z M516.87,164.43c-2.95,0-5.35,2.4-5.35,5.35s2.4,5.35,5.35,5.35
			c2.95,0,5.35-2.4,5.35-5.35S519.82,164.43,516.87,164.43z"/>
	</g>
	<g class="st3">
		<path class="st4" d="M541.32,209.45c-3.79,0-6.88-3.09-6.88-6.88c0-3.79,3.08-6.88,6.88-6.88c3.79,0,6.88,3.09,6.88,6.88
			C548.2,206.37,545.11,209.45,541.32,209.45z M541.32,198.2c-2.41,0-4.38,1.96-4.38,4.38c0,2.41,1.96,4.38,4.38,4.38
			c2.41,0,4.38-1.96,4.38-4.38C545.7,200.16,543.74,198.2,541.32,198.2z"/>
	</g>
	<g class="st3">
		<path class="st4" d="M1060.26,372.1c0-1.93,1.56-3.49,3.49-3.49c1.93,0,3.49,1.56,3.49,3.49s-1.56,3.49-3.49,3.49
			C1061.82,375.59,1060.26,374.03,1060.26,372.1z"/>
		<path class="st4" d="M1060.26,356.25c0-1.93,1.56-3.49,3.49-3.49c1.93,0,3.49,1.56,3.49,3.49c0,1.93-1.56,3.49-3.49,3.49
			C1061.82,359.74,1060.26,358.18,1060.26,356.25z"/>
		<path class="st4" d="M1060.26,340.4c0-1.93,1.56-3.49,3.49-3.49c1.93,0,3.49,1.56,3.49,3.49c0,1.93-1.56,3.49-3.49,3.49
			C1061.82,343.88,1060.26,342.32,1060.26,340.4z"/>
	</g>
	<path class="st4" d="M484.91,190.84c0,16.88-13.68,30.56-30.56,30.56c-16.88,0-30.56-13.68-30.56-30.56
		c0-16.88,13.69-30.56,30.56-30.56C471.23,160.28,484.91,173.96,484.91,190.84z"/>
	<g>
		<path class="st2" d="M473.75,176.92h-5.95l-1.86,6.98h-27.63v0.01c-0.08,0-0.15,0-0.23,0.03c-0.36,0.13-0.56,0.52-0.43,0.89
			l5.05,14.43h20.58l5.58-20.95h4.88c0.38,0,0.7-0.31,0.7-0.7C474.44,177.23,474.13,176.92,473.75,176.92z M464.91,187.74h-3.01
			l0.38-2.44h3.27L464.91,187.74z M463.98,191.23h-2.62l0.44-2.8h2.93L463.98,191.23z M463.05,194.72h-2.25l0.44-2.79h2.55
			L463.05,194.72z M453.15,197.87l-0.61-2.45h3.79l0.37,2.45H453.15z M448.27,197.87l-0.61-2.45h4.17l0.61,2.45H448.27z
			 M444.41,185.3l0.61,2.44h-4.87l-0.85-2.44H444.41z M449.3,185.3l0.61,2.44h-4.17l-0.61-2.44H449.3z M451.5,191.23l-0.7-2.8h4.49
			l0.42,2.8H451.5z M455.81,191.93l0.42,2.79h-3.87l-0.7-2.79H455.81z M450.78,191.23h-4.17l-0.7-2.8h4.17L450.78,191.23z
			 M455.99,188.44h5.09l-0.44,2.8h-4.23L455.99,188.44z M455.89,187.74l-0.37-2.44h6.06l-0.39,2.44H455.89z M455.18,187.74h-4.56
			l-0.61-2.44h4.8L455.18,187.74z M445.19,188.44l0.7,2.8h-4.52l-0.98-2.8H445.19z M441.62,191.93h4.45l0.7,2.79h-4.17
			L441.62,191.93z M446.79,191.93h4.17l0.7,2.79h-4.17L446.79,191.93z M457.05,195.42h2.94l-0.38,2.39c0,0.02,0,0.04,0,0.06h-2.2
			L457.05,195.42z M456.94,194.72l-0.42-2.79h4.02l-0.44,2.79H456.94z M442.84,195.42h4.1l0.61,2.45h-3.86L442.84,195.42z
			 M460.31,197.87l0.39-2.45h2.17l-0.65,2.45H460.31z"/>
		<path class="st2" d="M459.61,199.96c-1.5,0-2.74,1.04-3.06,2.44h-7.15c-0.32-1.4-1.56-2.44-3.06-2.44c-1.73,0-3.14,1.4-3.14,3.14
			c0,1.74,1.41,3.14,3.14,3.14c1.74,0,3.14-1.41,3.14-3.14h6.98c0,1.74,1.4,3.14,3.14,3.14c1.73,0,3.14-1.41,3.14-3.14
			C462.75,201.37,461.34,199.96,459.61,199.96z M446.34,204.85c-0.96,0-1.75-0.78-1.75-1.74c0-0.96,0.78-1.75,1.75-1.75
			c0.96,0,1.75,0.78,1.75,1.75C448.09,204.07,447.3,204.85,446.34,204.85z M459.61,204.85c-0.97,0-1.75-0.78-1.75-1.74
			c0-0.96,0.78-1.75,1.75-1.75c0.96,0,1.74,0.78,1.74,1.75C461.35,204.07,460.57,204.85,459.61,204.85z"/>
	</g>
	<g class="st3">
		<g>
			<polygon class="st4" points="282.2,234.23 279.84,232.29 296.15,212.38 307.81,222.93 324.33,202.46 335.64,211.9 350.95,190.08 
				353.45,191.83 336.23,216.38 324.75,206.8 308.15,227.37 296.48,216.8 			"/>
		</g>
		<g>
			<path class="st4" d="M357.5,183.41c-1.17,4.48-2.02,10.46-1.55,14.87l-4.44-6.33l-7.46-2.02
				C348.35,188.87,353.69,186.04,357.5,183.41z"/>
		</g>
	</g>
	<g>
		<path class="st7" d="M918.66,300.71c0,2-1.62,3.62-3.62,3.62c-2,0-3.62-1.62-3.62-3.62c0-2,1.62-3.62,3.62-3.62
			C917.04,297.08,918.66,298.71,918.66,300.71"/>
		<path class="st7" d="M899.74,307.21c-1.27,0.21-2.47,0.41-2.39,0.77c0.08,0.35,5.68,0.44,8.43,2.35c0.28,0.19,0.59,0.47,0.68,0.74
			c1.44,4.22-8.11,16.13-7.17,16.43c1.41,0.45,11.79-10.92,14.99-17.28c0.22-0.44,1.09-2.52,0.6-3.18
			c-0.26-0.35-1.13-0.62-2.36-0.74c-0.73-0.07-1.53-0.11-2.36-0.11C906.55,306.2,902.24,306.8,899.74,307.21"/>
	</g>
</g>
</svg>
